<svg width="512" height="512" viewBox="0 0 512 512" fill="none" xmlns="http://www.w3.org/2000/svg">
<g clip-path="url(#clip0_322_2)">
<circle cx="256" cy="256" r="256" fill="url(#paint0_linear_322_2)"/>
<circle cx="256" cy="256" r="240" fill="#191919"/>
<mask id="mask0_322_2" style="mask-type:alpha" maskUnits="userSpaceOnUse" x="48" y="48" width="416" height="416">
<circle cx="256" cy="256" r="208" fill="#D9D9D9"/>
</mask>
<g mask="url(#mask0_322_2)">
<rect x="48" y="215" width="208" height="82" fill="white"/>
<rect x="48" y="131" width="208" height="84" fill="#ECCD00"/>
<rect x="48" y="48" width="208" height="83" fill="#E28D00"/>
<rect x="48" y="381" width="208" height="84" fill="#203756"/>
<rect x="48" y="297" width="208" height="83" fill="#62AFDD"/>
<rect x="256" y="48" width="208" height="60" fill="#7F7F7F"/>
<rect x="256" y="108" width="208" height="58" fill="#C3C3C3"/>
<rect x="256" y="166" width="208" height="61" fill="#99D9EA"/>
<rect x="256" y="48" width="208" height="60" fill="#7F7F7F"/>
<rect x="256" y="166" width="208" height="61" fill="#99D9EA"/>
<rect x="256" y="227" width="208" height="58" fill="white"/>
<rect x="256" y="346" width="208" height="58" fill="#C3C3C3"/>
<rect x="256" y="404" width="208" height="60" fill="#7F7F7F"/>
<rect x="256" y="285" width="208" height="61" fill="#99D9EA"/>
</g>
<mask id="mask1_322_2" style="mask-type:alpha" maskUnits="userSpaceOnUse" x="18" y="16" width="480" height="480">
<circle cx="258" cy="256" r="240" fill="white"/>
</mask>
<g mask="url(#mask1_322_2)">
<rect x="165.137" y="161" width="20.1378" height="150" fill="#191919"/>
<rect width="20.1378" height="20" transform="matrix(1 0 0 -1 175.207 171)" fill="#191919"/>
<rect width="20.1378" height="20" transform="matrix(1 0 0 -1 195.345 191)" fill="#191919"/>
<rect width="20.1378" height="20" transform="matrix(1 0 0 -1 195.345 211)" fill="#3857D4"/>
<rect width="40.2757" height="20" transform="matrix(1 0 0 -1 175.207 341)" fill="url(#paint1_linear_322_2)"/>
<rect width="40.2757" height="20" transform="matrix(1 0 0 -1 275.896 341)" fill="url(#paint2_linear_322_2)"/>
<rect width="20.1378" height="20" transform="matrix(1 0 0 -1 316.172 341)" fill="#9D40B3"/>
<rect width="20.1378" height="20" transform="matrix(1 0 0 -1 296.033 211)" fill="#3B3995"/>
<rect width="20.1378" height="20" transform="matrix(1 0 0 -1 296.033 231)" fill="#5957B3"/>
<rect width="100.689" height="20" transform="matrix(1 0 0 -1 195.345 231)" fill="#6080FF"/>
<rect width="100.689" height="90" transform="matrix(1 0 0 -1 195.345 321)" fill="#191919"/>
<rect width="60.4135" height="130" transform="matrix(1 0 0 -1 215.482 441)" fill="#191919"/>
<rect width="40.2757" height="120" transform="matrix(1 0 0 -1 175.207 461)" fill="#191919"/>
<rect width="40.2757" height="120" transform="matrix(1 0 0 -1 275.896 461)" fill="#191919"/>
<rect width="10.0689" height="10" transform="matrix(1 0 0 -1 336.31 441)" fill="#191919"/>
<rect width="20.1378" height="20" transform="matrix(1 0 0 -1 336.31 431)" fill="#191919"/>
<rect width="20.1378" height="90" transform="matrix(1 0 0 -1 346.378 421)" fill="#191919"/>
<rect width="40.2757" height="20" transform="matrix(1 0 0 -1 356.447 341)" fill="#191919"/>
<rect width="20.1378" height="40" transform="matrix(1 0 0 -1 386.654 371)" fill="#191919"/>
<rect width="30.2068" height="20" transform="matrix(1 0 0 -1 366.517 381)" fill="#191919"/>
<rect width="10.0689" height="20" transform="matrix(1 0 0 -1 356.447 381)" fill="#662F94"/>
<rect width="10.0689" height="10" transform="matrix(1 0 0 -1 346.378 381)" fill="#662F94"/>
<rect width="40.2757" height="80" transform="matrix(1 0 0 -1 195.345 521)" fill="#191919"/>
<rect width="40.2757" height="80" transform="matrix(1 0 0 -1 255.758 521)" fill="#191919"/>
<rect width="20.1378" height="80" transform="matrix(1 0 0 -1 235.621 521)" fill="#111111"/>
<rect width="20.1378" height="60" transform="matrix(1 0 0 -1 296.033 521)" fill="#111111"/>
<rect width="20.1378" height="120" transform="matrix(1 0 0 -1 316.172 461)" fill="#111111"/>
<rect width="20.1378" height="20" transform="matrix(1 0 0 -1 215.482 211)" fill="#191919"/>
<rect width="20.1378" height="20" transform="matrix(1 0 0 -1 275.896 211)" fill="#191919"/>
<rect width="20.1378" height="20" transform="matrix(1 0 0 -1 296.033 191)" fill="#111111"/>
<rect width="20.1378" height="80" transform="matrix(1 0 0 -1 296.033 311)" fill="#111111"/>
<rect width="30.2068" height="20" transform="matrix(1 0 0 -1 185.276 161)" fill="#191919"/>
<rect width="10.0689" height="30" transform="matrix(1 0 0 -1 215.482 171)" fill="#111111"/>
<rect width="10.0689" height="30" transform="matrix(1 0 0 -1 225.551 181)" fill="#111111"/>
<rect width="10.0689" height="30" transform="matrix(1 0 0 -1 235.621 191)" fill="#111111"/>
<rect width="10.0689" height="30" transform="matrix(1 0 0 -1 265.827 191)" fill="#191919"/>
<rect width="10.0689" height="30" transform="matrix(1 0 0 -1 275.896 181)" fill="#191919"/>
<rect width="10.0689" height="30" transform="matrix(1 0 0 -1 285.965 171)" fill="#191919"/>
<rect width="10.0689" height="30" transform="matrix(1 0 0 -1 316.172 171)" fill="#191919"/>
<rect width="10.0689" height="10" transform="matrix(1 0 0 -1 326.24 161)" fill="#111111"/>
<rect width="20.1378" height="30" transform="matrix(1 0 0 -1 336.31 321)" fill="#111111"/>
<rect width="20.1378" height="20" transform="matrix(1 0 0 -1 396.723 321)" fill="#111111"/>
<rect width="20.1378" height="20" transform="matrix(1 0 0 -1 406.792 331)" fill="#111111"/>
<rect width="20.1378" height="20" transform="matrix(1 0 0 -1 406.792 391)" fill="#111111"/>
<rect width="20.1378" height="20" transform="matrix(1 0 0 -1 396.723 401)" fill="#111111"/>
<rect width="20.1378" height="20" transform="matrix(1 0 0 -1 376.585 431)" fill="#111111"/>
<rect width="20.1378" height="20" transform="matrix(1 0 0 -1 366.517 441)" fill="#111111"/>
<rect width="20.1378" height="20" transform="matrix(1 0 0 -1 356.447 451)" fill="#111111"/>
<rect width="20.1378" height="20" transform="matrix(1 0 0 -1 336.31 481)" fill="#111111"/>
<rect width="120" height="10.0689" transform="matrix(0 -1 -1 0 326.24 581)" fill="#BEBEBE"/>
<rect width="10" height="10.0689" transform="matrix(0 -1 -1 0 336.31 471)" fill="#BEBEBE"/>
<rect width="10" height="10.0689" transform="matrix(0 -1 -1 0 185.276 471)" fill="white"/>
<rect width="100" height="10.0689" transform="matrix(0 -1 -1 0 195.345 561)" fill="white"/>
<rect width="20" height="10.0689" transform="matrix(0 -1 -1 0 346.378 461)" fill="#BEBEBE"/>
<rect width="10" height="10.0689" transform="matrix(0 -1 -1 0 356.447 441)" fill="#BEBEBE"/>
<rect width="40" height="10.0689" transform="matrix(0 -1 -1 0 376.585 421)" fill="#BEBEBE"/>
<rect width="40" height="10.0689" transform="matrix(0 -1 -1 0 416.861 371)" fill="#BEBEBE"/>
<rect width="20" height="20.1378" transform="matrix(0 -1 -1 0 386.654 361)" fill="#BEBEBE"/>
<rect width="10" height="20.1378" transform="matrix(0 -1 -1 0 396.723 391)" fill="#BEBEBE"/>
<rect width="10" height="10.0689" transform="matrix(0 -1 -1 0 366.517 431)" fill="#BEBEBE"/>
<rect width="10" height="10.0689" transform="matrix(0 -1 -1 0 406.792 331)" fill="#BEBEBE"/>
<rect width="10" height="40.2757" transform="matrix(0 -1 -1 0 396.723 321)" fill="#BEBEBE"/>
<rect width="10" height="20.1378" transform="matrix(0 -1 -1 0 356.447 331)" fill="#BEBEBE"/>
<rect x="336.31" y="411" width="80" height="10.0689" transform="rotate(-90 336.31 411)" fill="#BEBEBE"/>
<rect width="10" height="20.1378" transform="matrix(0 -1 -1 0 316.172 171)" fill="white"/>
<rect width="10" height="20.1378" transform="matrix(0 -1 -1 0 215.482 171)" fill="white"/>
<rect width="10" height="40.2757" transform="matrix(0 -1 -1 0 215.482 321)" fill="white"/>
<rect width="140" height="10.0689" transform="matrix(0 -1 -1 0 195.345 311)" fill="white"/>
<rect width="140" height="10.0689" transform="matrix(0 -1 -1 0 175.207 461)" fill="white"/>
<rect width="10" height="20.1378" transform="matrix(0 -1 -1 0 296.033 191)" fill="white"/>
<rect width="10" height="10.0689" transform="matrix(0 -1 -1 0 296.033 181)" fill="white"/>
<rect width="10" height="20.1378" transform="matrix(0 -1 -1 0 235.621 191)" fill="#BEBEBE"/>
<rect width="10" height="10.0689" transform="matrix(0 -1 -1 0 225.551 181)" fill="#BEBEBE"/>
<rect width="10" height="10.0689" transform="matrix(0 -1 -1 0 275.896 201)" fill="white"/>
<rect width="10" height="10.0689" transform="matrix(0 -1 -1 0 275.896 211)" fill="#DDDDDD"/>
<rect width="10" height="30.2068" transform="matrix(0 -1 -1 0 265.827 211)" fill="#BEBEBE"/>
<rect width="10" height="10.0689" transform="matrix(0 -1 -1 0 245.689 201)" fill="#BEBEBE"/>
<rect width="10" height="40.2757" transform="matrix(0 -1 -1 0 336.31 321)" fill="#BEBEBE"/>
<rect width="140" height="10.0689" transform="matrix(0 -1 -1 0 326.24 311)" fill="#BEBEBE"/>
<rect width="10" height="10.0689" transform="matrix(0 -1 -1 0 406.792 381)" fill="#BEBEBE"/>
<rect width="10" height="10.0689" transform="matrix(0 -1 -1 0 356.447 441)" fill="#BEBEBE"/>
<rect width="10" height="10.0689" transform="matrix(0 -1 -1 0 356.447 441)" fill="#BEBEBE"/>
<rect width="20.1378" height="20" transform="matrix(1 0 0 -1 155.069 321)" fill="#191919"/>
<rect width="20.1378" height="20" transform="matrix(1 0 0 -1 155.069 481)" fill="#191919"/>
<rect width="20.1378" height="160" transform="matrix(1 0 0 -1 145 471)" fill="#191919"/>
<rect width="20.1378" height="80" transform="matrix(1 0 0 -1 165.137 551)" fill="#191919"/>
<rect width="30.2068" height="20" transform="matrix(1 0 0 -1 376.585 411)" fill="#111111"/>
<rect width="30" height="20.1378" transform="matrix(0 -1 -1 0 366.517 471)" fill="#111111"/>
<rect width="120" height="20.1378" transform="matrix(0 -1 -1 0 346.378 591)" fill="#111111"/>
<rect width="20.1378" height="60" transform="matrix(1 0 0 -1 416.861 381)" fill="#111111"/>
<rect width="50.3446" height="20" transform="matrix(1 0 0 -1 356.447 311)" fill="#111111"/>
<rect width="20.1378" height="150" transform="matrix(1 0 0 -1 326.24 311)" fill="#111111"/>
<rect width="20.1378" height="20" transform="matrix(1 0 0 -1 296.033 161)" fill="#191919"/>
<rect width="20.1378" height="30" transform="matrix(1 0 0 -1 245.689 201)" fill="#111111"/>
</g>
</g>
<defs>
<linearGradient id="paint0_linear_322_2" x1="72" y1="64" x2="440" y2="448" gradientUnits="userSpaceOnUse">
<stop stop-color="#5A83FF"/>
<stop offset="0.0001" stop-color="#5A83FF"/>
<stop offset="1" stop-color="#FE2BF4"/>
</linearGradient>
<linearGradient id="paint1_linear_322_2" x1="0" y1="10" x2="40.2757" y2="10" gradientUnits="userSpaceOnUse">
<stop stop-color="#9067FB"/>
<stop offset="1" stop-color="#A759F9"/>
</linearGradient>
<linearGradient id="paint2_linear_322_2" x1="0" y1="10" x2="40.2757" y2="10" gradientUnits="userSpaceOnUse">
<stop stop-color="#E03BF6"/>
<stop offset="1" stop-color="#EC34F5"/>
</linearGradient>
<clipPath id="clip0_322_2">
<rect width="512" height="512" fill="white"/>
</clipPath>
</defs>
</svg>
